HIERARCHY
ROOT Hips
{
 OFFSET 0.000000 0.000000 0.000000
 CHANNELS 6 Xposition Yposition Zposition Yrotation Xrotation Zrotation
 JOINT Chest
 {
  OFFSET 0.000000 14.374500 -0.011500
  CHANNELS 3 Yrotation Xrotation Zrotation
  JOINT Chest2
  {
   OFFSET 0.000000 9.203400 0.023400
   CHANNELS 3 Yrotation Xrotation Zrotation
   JOINT Chest3
   {
    OFFSET 0.000000 9.162700 0.000000
    CHANNELS 3 Yrotation Xrotation Zrotation
    JOINT Chest4
    {
     OFFSET 0.000000 9.153300 0.000000
     CHANNELS 3 Yrotation Xrotation Zrotation
     JOINT Neck
     {
      OFFSET 0.000000 13.353600 0.000000
      CHANNELS 3 Yrotation Xrotation Zrotation
      JOINT Head
      {
       OFFSET 0.000000 8.573800 0.049400
       CHANNELS 3 Yrotation Xrotation Zrotation
       End Site
       {
        OFFSET 0.000000 16.219200 0.026100
       }
      }
     }
     JOINT RightCollar
     {
      OFFSET -2.497100 8.876100 0.000000
      CHANNELS 3 Yrotation Xrotation Zrotation
      JOINT RightShoulder
      {
       OFFSET -12.289200 0.000000 0.000000
       CHANNELS 3 Yrotation Xrotation Zrotation
       JOINT RightElbow
       {
        OFFSET 0.000000 -28.194900 0.000000
        CHANNELS 3 Yrotation Xrotation Zrotation
        JOINT RightWrist
        {
         OFFSET 0.000000 -23.009700 0.007900
         CHANNELS 3 Yrotation Xrotation Zrotation
         End Site
         {
          OFFSET 0.000000 -17.151500 0.000000
         }
        }
       }
      }
     }
     JOINT LeftCollar
     {
      OFFSET 2.497100 8.876100 0.000000
      CHANNELS 3 Yrotation Xrotation Zrotation
      JOINT LeftShoulder
      {
       OFFSET 12.289200 0.000000 0.000000
       CHANNELS 3 Yrotation Xrotation Zrotation
       JOINT LeftElbow
       {
        OFFSET 0.000000 -28.194900 0.000000
        CHANNELS 3 Yrotation Xrotation Zrotation
        JOINT LeftWrist
        {
         OFFSET 0.000000 -23.009700 0.007900
         CHANNELS 3 Yrotation Xrotation Zrotation
         End Site
         {
          OFFSET 0.000000 -17.151500 0.000000
         }
        }
       }
      }
     }
    }
   }
  }
 }
 JOINT RightHip
 {
  OFFSET -11.777600 0.056700 0.005700
  CHANNELS 3 Yrotation Xrotation Zrotation
  JOINT RightKnee
  {
   OFFSET 0.000000 -39.966000 -0.004200
   CHANNELS 3 Yrotation Xrotation Zrotation
   JOINT RightAnkle
   {
    OFFSET 0.000000 -41.981900 0.027400
    CHANNELS 3 Yrotation Xrotation Zrotation
    JOINT RightToe
    {
     OFFSET 0.000000 -9.910600 16.950100
     CHANNELS 3 Yrotation Xrotation Zrotation
     End Site
     {
      OFFSET 0.000000 -1.461000 6.191600
     }
    }
   }
  }
 }
 JOINT LeftHip
 {
  OFFSET 11.777600 0.056700 0.005700
  CHANNELS 3 Yrotation Xrotation Zrotation
  JOINT LeftKnee
  {
   OFFSET 0.000000 -39.966000 -0.004200
   CHANNELS 3 Yrotation Xrotation Zrotation
   JOINT LeftAnkle
   {
    OFFSET 0.000000 -41.981900 0.027400
    CHANNELS 3 Yrotation Xrotation Zrotation
    JOINT LeftToe
    {
     OFFSET 0.000000 -9.910600 16.950100
     CHANNELS 3 Yrotation Xrotation Zrotation
     End Site
     {
      OFFSET 0.000000 -1.461000 6.191600
     }
    }
   }
  }
 }
}
MOTION
Frames: 15
Frame Time: 0.008333
-6.852566 130.386827 93.250947 175.607152 -43.431073 -3.208417 2.742051 22.217186 3.430835 0.298774 3.141491 0.410174 0.496402 5.090613 0.673899 2.192452 18.781088 2.805216 5.835879 18.420932 -1.513971 6.672129 -5.907282 -3.001863 -1.126934 -5.897280 1.378277 5.368436 -7.878107 -18.310275 41.736252 -62.254984 -10.861099 17.484943 7.143755 -27.078275 -9.341393 -11.092481 2.611453 17.115969 -33.691288 29.076472 94.748318 -51.252158 -109.003179 16.077659 -28.097385 2.446139 7.293872 -33.958733 -0.587151 -79.936365 86.611368 -82.201214 3.932829 -25.254037 8.418354 0.003488 -0.004419 0.002039 -4.260851 -34.157525 -1.803785 147.516603 72.154644 158.496373 -4.060647 9.522280 -8.125889 0.007234 -0.003817 0.004230
-6.852980 130.387003 93.250547 175.605156 -43.428676 -3.209463 2.737945 22.215673 3.435268 0.298391 3.141322 0.410887 0.495516 5.090377 0.675000 2.183747 18.782236 2.810664 5.848828 18.504023 -1.545406 6.716307 -5.836258 -3.038101 -1.110337 -5.899811 1.362964 5.425537 -7.869837 -18.369682 41.704718 -62.270811 -10.825622 17.473903 7.131446 -27.105241 -9.302335 -10.977096 2.578061 17.311351 -33.528185 28.708480 95.086556 -51.360647 -109.402755 16.060642 -28.106001 2.454054 7.282197 -33.957862 -0.583836 -79.869018 86.610655 -82.138652 3.928202 -25.259201 8.425118 0.001682 -0.004835 0.000984 -4.263451 -34.161381 -1.808229 147.516271 72.153032 158.499405 -4.055034 9.528350 -8.126982 0.011284 -0.005683 0.006597
-6.855527 130.386943 93.250091 175.607264 -43.424420 -3.207360 2.729246 22.215133 3.437338 0.296691 3.140915 0.411126 0.481164 5.094861 0.686618 2.181178 18.780214 2.804880 5.894117 18.617733 -1.582341 6.752668 -5.819612 -3.070687 -1.088801 -5.903746 1.351448 5.474747 -7.858984 -18.431657 41.635590 -62.291267 -10.776487 17.462335 7.128546 -27.123183 -9.271056 -10.878868 2.542500 17.545161 -33.319307 28.292162 95.466109 -51.508052 -109.865357 16.049291 -28.118205 2.481927 7.271666 -33.957374 -0.594132 -79.750427 86.617586 -82.027243 3.944349 -25.265431 8.426918 0.003953 -0.005473 0.002311 -4.265024 -34.166060 -1.827391 147.480902 72.145536 158.463123 -4.046751 9.532990 -8.122858 0.009661 -0.003650 0.005649
-6.857476 130.387130 93.249463 175.606297 -43.421327 -3.208301 2.719753 22.217018 3.441988 0.289215 3.146820 0.419494 0.488826 5.089957 0.679134 2.170795 18.783047 2.816429 5.941036 18.668529 -1.609403 6.812538 -5.758272 -3.111737 -1.069103 -5.900186 1.335643 5.517673 -7.856434 -18.489642 41.582378 -62.314602 -10.738997 17.445257 7.125436 -27.143219 -9.241547 -10.767850 2.500562 17.809645 -33.084563 27.830136 95.890770 -51.672581 -110.376817 16.025792 -28.134663 2.516568 7.259464 -33.953277 -0.600727 -79.553197 86.631529 -81.834595 3.945796 -25.270205 8.433836 0.000708 -0.002865 0.000414 -4.265483 -34.167090 -1.841453 147.480620 72.143573 158.462920 -4.027340 9.532932 -8.116974 0.008804 -0.002382 0.005147
-6.859562 130.386914 93.249275 175.611130 -43.415554 -3.215763 2.710251 22.219380 3.451320 0.293893 3.141199 0.413926 0.479351 5.097914 0.688686 2.169945 18.778414 2.813790 6.008905 18.731196 -1.618501 6.875641 -5.716890 -3.154537 -1.066745 -5.881867 1.338719 5.562899 -7.860496 -18.552788 41.573754 -62.347358 -10.722410 17.408104 7.138625 -27.173679 -9.221166 -10.622631 2.463887 18.092094 -32.832126 27.335770 96.374576 -51.851638 -110.940995 15.992694 -28.152353 2.554489 7.251767 -33.957012 -0.599597 -79.488168 86.635704 -81.770316 3.946726 -25.269180 8.435017 0.001494 -0.002922 0.000874 -4.271121 -34.172832 -1.853012 147.453524 72.135056 158.437949 -4.019476 9.532561 -8.113431 0.006240 -0.000917 0.003648
-6.861181 130.386934 93.248943 175.614943 -43.411179 -3.227059 2.701096 22.222221 3.462373 0.292259 3.142005 0.415750 0.474889 5.105025 0.695696 2.160280 18.782047 2.828630 6.080024 18.769332 -1.652503 6.960745 -5.666205 -3.200503 -1.056302 -5.826419 1.347015 5.609531 -7.904362 -18.645492 41.605358 -62.412556 -10.734722 17.369500 7.179883 -27.199648 -9.188189 -10.458094 2.393484 18.389398 -32.569364 26.822584 96.912898 -52.043414 -111.552783 15.953613 -28.168804 2.586168 7.243174 -33.960204 -0.591222 -79.424580 86.641017 -81.707084 3.939610 -25.266562 8.438037 0.000734 -0.002971 0.000429 -4.278808 -34.176887 -1.853730 147.467116 72.131166 158.453210 -4.007200 9.530000 -8.112660 0.006146 0.000083 0.003593
-6.860693 130.386844 93.249070 175.626716 -43.405640 -3.254531 2.691538 22.226078 3.485904 0.286250 3.149338 0.421771 0.477598 5.103772 0.693699 2.149056 18.790732 2.848480 6.157300 18.799084 -1.684853 7.053856 -5.622766 -3.244838 -1.040419 -5.806170 1.337934 5.635104 -7.913877 -18.712050 41.586787 -62.460856 -10.730491 17.359258 7.180335 -27.215364 -9.163608 -10.272922 2.307766 18.701411 -32.293805 26.307483 97.490400 -52.243800 -112.201129 15.906439 -28.180331 2.602992 7.225148 -33.963454 -0.570528 -79.335597 86.641986 -81.617753 3.952184 -25.269239 8.439151 0.004556 -0.004633 0.002664 -4.286535 -34.183287 -1.842819 147.457623 72.123964 158.452364 -4.001170 9.528003 -8.105743 0.002649 0.000318 0.001549
-6.862944 130.387030 93.248431 175.636722 -43.402834 -3.271012 2.679967 22.233013 3.497426 0.289189 3.145673 0.420815 0.475496 5.116073 0.699192 2.142111 18.790520 2.854400 6.240622 18.826911 -1.694836 7.150752 -5.591003 -3.282825 -1.034555 -5.788355 1.342101 5.650851 -7.929202 -18.754490 41.587669 -62.491081 -10.735986 17.342170 7.179755 -27.239942 -9.161098 -10.068191 2.219143 19.028787 -31.999088 25.798329 98.095367 -52.457584 -112.874835 15.852679 -28.182008 2.602941 7.218598 -33.964901 -0.564849 -79.314187 86.642174 -81.591262 3.949507 -25.270565 8.441863 0.003477 -0.005899 0.002033 -4.294279 -34.186913 -1.835470 147.440046 72.116319 158.433349 -4.003173 9.524074 -8.097302 0.000513 0.001522 0.000300
-6.866219 130.387287 93.247507 175.643880 -43.401015 -3.281828 2.673548 22.243023 3.504478 0.287791 3.148736 0.422971 0.478957 5.122062 0.701872 2.136596 18.797373 2.864390 6.326405 18.838482 -1.701215 7.249111 -5.571266 -3.311056 -1.035334 -5.760159 1.353623 5.668572 -7.962418 -18.804686 41.587518 -62.536523 -10.741355 17.298600 7.170184 -27.299394 -9.176931 -9.871387 2.110666 19.376886 -31.685255 25.289743 98.711800 -52.698563 -113.559767 15.795101 -28.174039 2.589634 7.217986 -33.963533 -0.564373 -79.307725 86.638597 -81.581343 3.948515 -25.275531 8.447365 0.001836 -0.004294 0.001074 -4.277073 -34.193950 -1.837955 147.431134 72.108308 158.439321 -4.009180 9.522044 -8.090345 0.002592 0.000493 0.001516
-6.868937 130.387354 93.246761 175.658198 -43.397959 -3.299444 2.668563 22.252138 3.517581 0.286873 3.151536 0.424929 0.480332 5.130625 0.699768 2.131931 18.810917 2.878436 6.415358 18.836113 -1.702428 7.349240 -5.561008 -3.327829 -1.038764 -5.723738 1.369698 5.684789 -7.987950 -18.862403 41.590748 -62.604408 -10.762976 17.277789 7.180953 -27.332840 -9.201900 -9.681400 1.985694 19.747840 -31.359711 24.771344 99.321547 -52.977141 -114.238616 15.734730 -28.158039 2.564958 7.210259 -33.964078 -0.560842 -79.300971 86.639808 -81.570099 3.947923 -25.284878 8.444097 0.002760 -0.005713 0.001614 -4.289037 -34.197488 -1.830043 147.430600 72.104834 158.438911 -4.009755 9.517285 -8.092802 0.004109 0.001483 0.002403
-6.870012 130.386613 93.247143 175.687262 -43.388671 -3.333027 2.657598 22.259199 3.531795 0.286259 3.154875 0.426955 0.483074 5.137601 0.700221 2.127655 18.808898 2.884387 6.509689 18.843501 -1.685824 7.450210 -5.557049 -3.334476 -1.040262 -5.689011 1.383417 5.680040 -7.995738 -18.890430 41.550278 -62.688719 -10.775416 17.292237 7.192115 -27.337002 -9.227022 -9.473012 1.856182 20.139357 -31.025065 24.236978 99.910686 -53.289311 -114.900329 15.668589 -28.136407 2.533030 7.191353 -33.971310 -0.550528 -79.315470 86.638509 -81.577440 3.943909 -25.293026 8.443327 0.003183 -0.008873 0.001861 -4.303773 -34.208181 -1.813678 147.407324 72.099536 158.420997 -4.017603 9.508081 -8.088176 0.003195 0.003365 0.001868
-6.871600 130.385951 93.247311 175.707713 -43.380026 -3.357040 2.656669 22.267579 3.542825 0.285696 3.158042 0.428303 0.480926 5.138581 0.701688 2.130375 18.824538 2.890349 6.602197 18.838687 -1.664868 7.549364 -5.556219 -3.334487 -1.045252 -5.697373 1.389142 5.661967 -7.965943 -18.883402 41.542838 -62.753620 -10.821797 17.299427 7.188313 -27.351894 -9.249565 -9.269130 1.720003 20.550787 -30.684833 23.685701 100.461952 -53.617505 -115.535010 15.584361 -28.107616 2.505877 7.196626 -33.976879 -0.555948 -79.273630 86.640085 -81.519117 3.943208 -25.299507 8.443898 0.000334 -0.008908 0.000195 -4.280272 -34.219525 -1.806054 147.398180 72.098410 158.440142 -4.032340 9.495803 -8.087744 0.008919 0.002998 0.005215
-6.876724 130.386112 93.246033 175.711480 -43.377141 -3.353217 2.661658 22.285232 3.535642 0.285571 3.161753 0.429362 0.475129 5.121662 0.704590 2.146223 18.865502 2.897123 6.690847 18.823131 -1.641292 7.644856 -5.557033 -3.329145 -1.057203 -5.717651 1.396734 5.628083 -7.928918 -18.864843 41.567201 -62.815399 -10.889319 17.298713 7.180899 -27.377828 -9.268407 -9.056903 1.581660 20.981054 -30.352237 23.115809 100.957618 -53.940089 -116.128125 15.474914 -28.065439 2.489628 7.212817 -33.973858 -0.572757 -79.230840 86.641757 -81.474354 3.942087 -25.318878 8.443802 -0.001169 -0.008574 -0.000683 -4.266346 -34.224364 -1.810827 147.378258 72.094975 158.402162 -4.032809 9.486472 -8.059202 -0.001162 0.002467 -0.000680
-6.878192 130.386538 93.244991 175.718891 -43.374325 -3.364410 2.667033 22.299890 3.542913 0.286763 3.166062 0.430653 0.477204 5.128064 0.706686 2.147152 18.856327 2.898612 6.790450 18.835371 -1.613086 7.737532 -5.560976 -3.315176 -1.057123 -5.611526 1.421539 5.522666 -7.923259 -18.810818 41.840052 -62.899411 -11.173138 17.282266 7.174323 -27.413191 -9.262852 -8.790171 1.440583 21.422413 -30.033192 22.530629 101.385419 -54.238534 -116.665541 15.340418 -28.008036 2.477703 7.220060 -33.971664 -0.574782 -79.169820 86.641114 -81.403817 3.942141 -25.328928 8.445288 -0.000784 -0.004665 -0.000458 -4.263693 -34.227618 -1.803928 147.388478 72.093267 158.406168 -4.024159 9.472904 -8.049889 -0.005793 0.001304 -0.003387
-6.878405 130.386347 93.244763 175.760736 -43.365079 -3.402119 2.680582 22.321082 3.553132 0.269698 3.157532 0.440605 0.479346 5.135044 0.708627 2.142266 18.845999 2.904181 6.891178 18.842323 -1.583861 7.828806 -5.571781 -3.288613 -1.061624 -5.572211 1.430637 5.425919 -7.887406 -18.743309 42.116976 -62.950065 -11.434183 17.233543 7.167637 -27.462142 -9.247362 -8.509677 1.302682 21.870372 -29.723641 21.945609 101.726219 -54.501685 -117.126078 15.184807 -27.935596 2.456240 7.191899 -33.975158 -0.567478 -79.134424 86.639516 -81.365000 3.941977 -25.335001 8.445576 -0.001098 -0.004783 -0.000642 -4.277886 -34.237547 -1.795849 147.404065 72.092578 158.433696 -4.027284 9.446532 -8.059831 -0.007121 -0.000585 -0.004164
